<mxfile host="65bd71144e">
    <diagram id="sGN1RQhpzj4TyrAGg4A0" name="Page-1">
        <mxGraphModel dx="2262" dy="1515" grid="1" gridSize="10" guides="1" tooltips="1" connect="1" arrows="1" fold="1" page="1" pageScale="1" pageWidth="4681" pageHeight="3300" background="#114B5F" math="0" shadow="0">
            <root>
                <mxCell id="0"/>
                <mxCell id="1" parent="0"/>
                <mxCell id="Rxnnod5nAKelHgXRd51q-2" value="" style="edgeStyle=orthogonalEdgeStyle;rounded=0;orthogonalLoop=1;jettySize=auto;html=1;fontSize=10;fontColor=#4D4D4D;strokeColor=#FFFF00;" parent="1" source="OytqUMlTrZ75kERAMYIp-1" target="Rxnnod5nAKelHgXRd51q-1" edge="1">
                    <mxGeometry relative="1" as="geometry"/>
                </mxCell>
                <mxCell id="OytqUMlTrZ75kERAMYIp-1" value="&lt;font size=&quot;1&quot; color=&quot;#4d4d4d&quot;&gt;&lt;b style=&quot;&quot;&gt;Authentication Service&lt;/b&gt;&lt;/font&gt;" style="shape=hexagon;perimeter=hexagonPerimeter2;whiteSpace=wrap;html=1;fixedSize=1;fillColor=#F45B69;strokeColor=#028090;fontColor=#E4FDE1;rounded=0;" parent="1" vertex="1">
                    <mxGeometry x="610" y="450" width="90" height="80" as="geometry"/>
                </mxCell>
                <mxCell id="OytqUMlTrZ75kERAMYIp-5" style="edgeStyle=orthogonalEdgeStyle;rounded=0;orthogonalLoop=1;jettySize=auto;html=1;strokeColor=#FFFF00;" parent="1" source="OytqUMlTrZ75kERAMYIp-3" target="OytqUMlTrZ75kERAMYIp-1" edge="1">
                    <mxGeometry relative="1" as="geometry"/>
                </mxCell>
                <mxCell id="OytqUMlTrZ75kERAMYIp-3" value="" style="sketch=0;outlineConnect=0;fontColor=#232F3E;gradientColor=none;fillColor=#38EFF5;strokeColor=none;dashed=0;verticalLabelPosition=bottom;verticalAlign=top;align=center;html=1;fontSize=12;fontStyle=0;aspect=fixed;pointerEvents=1;shape=mxgraph.aws4.mobile_client;" parent="1" vertex="1">
                    <mxGeometry x="140" y="320" width="73.59" height="140" as="geometry"/>
                </mxCell>
                <mxCell id="OytqUMlTrZ75kERAMYIp-8" style="edgeStyle=orthogonalEdgeStyle;rounded=0;orthogonalLoop=1;jettySize=auto;html=1;strokeColor=#FFFF00;" parent="1" source="OytqUMlTrZ75kERAMYIp-4" target="OytqUMlTrZ75kERAMYIp-1" edge="1">
                    <mxGeometry relative="1" as="geometry">
                        <Array as="points">
                            <mxPoint x="470" y="580"/>
                            <mxPoint x="470" y="490"/>
                        </Array>
                    </mxGeometry>
                </mxCell>
                <mxCell id="OytqUMlTrZ75kERAMYIp-4" value="" style="sketch=0;outlineConnect=0;fontColor=#232F3E;gradientColor=none;fillColor=#38EFF5;strokeColor=none;dashed=0;verticalLabelPosition=bottom;verticalAlign=top;align=center;html=1;fontSize=12;fontStyle=0;aspect=fixed;pointerEvents=1;shape=mxgraph.aws4.client;" parent="1" vertex="1">
                    <mxGeometry x="125.48000000000003" y="530" width="102.63" height="100" as="geometry"/>
                </mxCell>
                <mxCell id="Rxnnod5nAKelHgXRd51q-25" style="edgeStyle=orthogonalEdgeStyle;rounded=0;orthogonalLoop=1;jettySize=auto;html=1;strokeColor=#FFFF00;fontSize=10;fontColor=#E6E6E6;" parent="1" source="Rxnnod5nAKelHgXRd51q-1" target="Rxnnod5nAKelHgXRd51q-24" edge="1">
                    <mxGeometry relative="1" as="geometry"/>
                </mxCell>
                <mxCell id="Rxnnod5nAKelHgXRd51q-1" value="&lt;font size=&quot;1&quot; color=&quot;#4d4d4d&quot;&gt;&lt;b style=&quot;&quot;&gt;Expense Tracker Service&lt;br&gt;&lt;/b&gt;&lt;/font&gt;" style="shape=hexagon;perimeter=hexagonPerimeter2;whiteSpace=wrap;html=1;fixedSize=1;fillColor=#F45B69;strokeColor=#028090;fontColor=#E4FDE1;rounded=0;" parent="1" vertex="1">
                    <mxGeometry x="780" y="450" width="90" height="80" as="geometry"/>
                </mxCell>
                <mxCell id="Rxnnod5nAKelHgXRd51q-24" value="&lt;b&gt;&lt;font color=&quot;#4d4d4d&quot;&gt;Expense DB&lt;/font&gt;&lt;/b&gt;" style="shape=cylinder3;whiteSpace=wrap;html=1;boundedLbl=1;backgroundOutline=1;size=15;labelBackgroundColor=none;fontSize=10;fontColor=#E6E6E6;fillColor=#F45B69;" parent="1" vertex="1">
                    <mxGeometry x="1170" y="450" width="60" height="80" as="geometry"/>
                </mxCell>
                <mxCell id="4" value="" style="edgeStyle=none;html=1;" edge="1" parent="1" source="2" target="3">
                    <mxGeometry relative="1" as="geometry"/>
                </mxCell>
                <mxCell id="6" value="" style="edgeStyle=none;html=1;" edge="1" parent="1" source="2" target="5">
                    <mxGeometry relative="1" as="geometry"/>
                </mxCell>
                <mxCell id="2" value="Balance" style="shape=ext;double=1;rounded=0;whiteSpace=wrap;html=1;" vertex="1" parent="1">
                    <mxGeometry x="1040" y="720" width="170" height="70" as="geometry"/>
                </mxCell>
                <mxCell id="8" value="" style="edgeStyle=none;html=1;" edge="1" parent="1" source="3" target="7">
                    <mxGeometry relative="1" as="geometry"/>
                </mxCell>
                <mxCell id="3" value="Income" style="whiteSpace=wrap;html=1;rounded=0;" vertex="1" parent="1">
                    <mxGeometry x="580" y="980" width="120" height="60" as="geometry"/>
                </mxCell>
                <mxCell id="18" value="" style="edgeStyle=none;html=1;" edge="1" parent="1" source="5" target="17">
                    <mxGeometry relative="1" as="geometry"/>
                </mxCell>
                <mxCell id="20" value="" style="edgeStyle=none;html=1;" edge="1" parent="1" source="5" target="19">
                    <mxGeometry relative="1" as="geometry"/>
                </mxCell>
                <mxCell id="24" value="" style="edgeStyle=none;html=1;" edge="1" parent="1" source="5" target="23">
                    <mxGeometry relative="1" as="geometry"/>
                </mxCell>
                <mxCell id="5" value="Expense" style="whiteSpace=wrap;html=1;rounded=0;" vertex="1" parent="1">
                    <mxGeometry x="1540" y="980" width="120" height="60" as="geometry"/>
                </mxCell>
                <mxCell id="12" value="" style="edgeStyle=none;html=1;" edge="1" parent="1" source="7" target="11">
                    <mxGeometry relative="1" as="geometry"/>
                </mxCell>
                <mxCell id="14" value="" style="edgeStyle=none;html=1;" edge="1" parent="1" source="7" target="13">
                    <mxGeometry relative="1" as="geometry"/>
                </mxCell>
                <mxCell id="7" value="Salary" style="whiteSpace=wrap;html=1;rounded=0;" vertex="1" parent="1">
                    <mxGeometry x="290" y="1120" width="120" height="60" as="geometry"/>
                </mxCell>
                <mxCell id="11" value="Invoice" style="whiteSpace=wrap;html=1;rounded=0;" vertex="1" parent="1">
                    <mxGeometry x="118.11000000000001" y="1270" width="120" height="60" as="geometry"/>
                </mxCell>
                <mxCell id="13" value="Work" style="whiteSpace=wrap;html=1;rounded=0;" vertex="1" parent="1">
                    <mxGeometry x="450" y="1270" width="120" height="60" as="geometry"/>
                </mxCell>
                <mxCell id="17" value="Food and drinks" style="whiteSpace=wrap;html=1;rounded=0;" vertex="1" parent="1">
                    <mxGeometry x="1310" y="1120" width="120" height="60" as="geometry"/>
                </mxCell>
                <mxCell id="19" value="Transport" style="whiteSpace=wrap;html=1;rounded=0;" vertex="1" parent="1">
                    <mxGeometry x="1540" y="1120" width="120" height="60" as="geometry"/>
                </mxCell>
                <mxCell id="23" value="Grocery" style="whiteSpace=wrap;html=1;rounded=0;" vertex="1" parent="1">
                    <mxGeometry x="1770" y="1120" width="120" height="60" as="geometry"/>
                </mxCell>
            </root>
        </mxGraphModel>
    </diagram>
</mxfile>